<svg id="css-5" xmlns="http://www.w3.org/2000/svg" width="88.18" height="100" viewBox="0 0 88.18 100">
  <path id="Trazado_627" data-name="Trazado 627" d="M8.026,581.407,0,491.4H88.18l-8.036,89.992L44.035,591.4Z" transform="translate(0 -491.4)" fill="#1572b6"/>
  <path id="Trazado_628" data-name="Trazado 628" d="M885.5,724.193l29.177-8.091,6.861-76.9H885.5Z" transform="translate(-841.41 -631.841)" fill="#33a9dc"/>
  <path id="Trazado_629" data-name="Trazado 629" d="M885.5,867.836h14.609l1.006-11.3H885.5V845.5h27.684l-.264,2.963-2.714,30.422H885.5Z" transform="translate(-841.41 -827.869)" fill="#fff"/>
  <path id="Trazado_630" data-name="Trazado 630" d="M424.8,1638.524h-.05L412.46,1635.2l-.787-8.8H400.6l1.549,17.332,22.615,6.294h.065v-11.5Z" transform="translate(-380.654 -1569.888)" fill="#ebebeb"/>
  <path id="Trazado_631" data-name="Trazado 631" d="M899.743,1506.2l-1.329,14.773L886.1,1524.3v11.5l22.63-6.274.164-1.867,1.922-21.46H899.743Z" transform="translate(-841.98 -1455.672)" fill="#fff"/>
  <path id="Trazado_632" data-name="Trazado 632" d="M358.554,845.5v11.039H331.9l-.229-2.48-.5-5.6L330.9,845.5Zm-.04,22.336v11.039H346.36l-.214-2.48-.5-5.6-.264-2.963h13.13Z" transform="translate(-314.424 -827.869)" fill="#ebebeb"/>
</svg>
