<svg id="Componente_6_2" data-name="Componente 6 – 2" xmlns="http://www.w3.org/2000/svg" width="88.175" height="100" viewBox="0 0 88.175 100">
  <g id="html-5">
    <path id="Trazado_608" data-name="Trazado 608" d="M88.62,70.766l-8.033,89.99-36.109,10.01-36.009-10-8.025-90Z" transform="translate(-0.445 -70.766)" fill="#e44d26"/>
    <path id="Trazado_609" data-name="Trazado 609" d="M128,177.046l29.178-8.089,6.864-76.9H128Z" transform="translate(-83.912 -84.698)" fill="#f16529"/>
    <path id="Trazado_610" data-name="Trazado 610" d="M59.981,135.034H75.6V124H47.917l.264,2.961,2.713,30.419H75.6V146.337H60.99ZM62.469,162.9H51.388l1.546,17.332L75.546,186.5l.051-.014V175.006l-.048.013L63.255,171.7l-.786-8.8Z" transform="translate(-31.509 -105.597)" fill="#ebebeb"/>
    <path id="Trazado_612" data-name="Trazado 612" d="M127.889,157.376h13.593L140.2,171.692l-12.312,3.323V186.5l22.63-6.272.166-1.865,2.594-29.061.269-2.964H127.889Zm0-22.369v.027h26.663l.221-2.481.5-5.6.264-2.961H127.889v11.012Z" transform="translate(-83.84 -105.597)" fill="#fff"/>
  </g>
</svg>
