<svg data-name="Componente 6 – 2" xmlns="http://www.w3.org/2000/svg" width="88.175" height="100"><path data-name="Trazado 608" d="M88.175 0l-8.033 89.99L44.033 100 8.024 90-.001 0z" fill="#e44d26"/><path data-name="Trazado 609" d="M44.088 92.348l29.178-8.089 6.864-76.9H44.088z" fill="#f16529"/><path data-name="Trazado 610" d="M28.472 29.437h15.619V18.403H16.408l.264 2.961 2.713 30.419h24.706V40.74h-14.61zm2.488 27.866H19.879l1.546 17.332 22.612 6.268.051-.014v-11.48l-.048.013-12.294-3.319-.786-8.8z" fill="#ebebeb"/><path data-name="Trazado 612" d="M44.049 51.779h13.593L56.36 66.095l-12.312 3.323v11.485l22.63-6.272.166-1.865 2.594-29.061.269-2.964H44.049zm0-22.369v.027h26.663l.221-2.481.5-5.6.264-2.961H44.049v11.012z" fill="#fff"/></svg>