<svg xmlns="http://www.w3.org/2000/svg" width="88.18" height="100"><path data-name="Trazado 627" d="M8.026 90.007L0 0h88.18l-8.036 89.992L44.035 100z" fill="#1572b6"/><path data-name="Trazado 628" d="M44.09 92.352l29.177-8.091 6.861-76.9H44.09z" fill="#33a9dc"/><path data-name="Trazado 629" d="M44.09 39.967h14.609l1.006-11.3H44.09V17.631h27.684l-.264 2.963-2.714 30.422H44.09z" fill="#fff"/><path data-name="Trazado 630" d="M44.146 68.636h-.05l-12.29-3.324-.787-8.8H19.946l1.549 17.332 22.615 6.294h.065v-11.5z" fill="#ebebeb"/><path data-name="Trazado 631" d="M57.763 50.528l-1.329 14.773-12.314 3.327v11.5l22.63-6.274.164-1.867 1.922-21.46H57.763z" fill="#fff"/><path data-name="Trazado 632" d="M44.13 17.631V28.67H17.476l-.229-2.48-.5-5.6-.271-2.959zm-.04 22.336v11.039H31.936l-.214-2.48-.5-5.6-.264-2.963h13.13z" fill="#ebebeb"/></svg>